<svg width="250" height="115" viewBox="0 0 250 115" fill="none" xmlns="http://www.w3.org/2000/svg">
<path d="M57.4084 114.817C25.7003 114.817 0 89.1163 0 57.4082C0 25.7001 25.7003 0 57.4084 0C82.1073 0 104.136 16.0208 111.813 39.7184L112.147 40.386H246.989L247.323 41.3873C252.997 55.4056 247.991 71.7604 247.323 73.4293L246.989 74.4305H112.147L111.813 75.0981C104.136 98.7958 82.1073 114.817 57.4084 114.817ZM57.4084 3.0038C27.3691 3.0038 3.0039 27.3689 3.0039 57.4082C3.0039 87.4474 27.3691 111.813 57.4084 111.813C80.1047 111.813 100.798 97.4605 108.475 75.7655L108.809 74.4305H92.4542L92.1204 75.0981C85.445 88.4489 72.0942 96.4593 57.4084 96.4593C35.7134 96.4593 18.3573 79.1032 18.3573 57.4082C18.3573 35.7132 35.7134 18.3573 57.4084 18.3573C72.0942 18.3573 85.445 26.7014 92.1204 39.7184L92.4542 40.386H108.809L108.475 39.0509C100.798 17.3558 80.1047 3.0038 57.4084 3.0038ZM57.0746 21.0274C37.0484 21.0274 21.0274 37.0483 21.0274 57.0745C21.0274 77.1007 37.0484 93.1216 57.0746 93.1216C69.7578 93.1216 81.4397 86.4461 88.1151 75.7655L89.1165 74.0967H51.0667L50.733 73.4293C50.0655 72.7617 39.3848 58.4095 50.733 40.7197L51.0667 40.0523H89.4502L88.4489 38.3835C81.7735 28.0366 70.0916 21.3612 57.0746 21.0274ZM238.979 65.7524C238.645 67.4213 238.311 68.7565 237.978 70.0916L237.644 71.4265H244.653L244.987 70.759C244.987 70.0914 245.321 69.7577 245.654 69.0901C245.988 68.0888 246.322 67.4213 246.322 66.42L246.656 65.085H239.313L238.979 65.7524ZM149.862 65.7524C149.529 67.4213 149.195 68.7565 148.861 70.0916L148.527 71.4265H234.974V70.4253C234.974 69.7577 235.307 69.0902 235.307 68.0889C235.641 67.4213 235.641 66.7539 235.975 66.0863L236.309 64.7512H150.196L149.862 65.7524ZM49.7316 66.42C50.7329 68.4226 51.4005 69.7577 52.0681 70.759L52.4018 71.0929H145.19L145.524 70.4253C145.857 69.0902 146.191 67.7552 146.525 66.0863L146.859 64.7512H49.0642L49.7316 66.42ZM238.311 44.725C239.98 50.3991 239.98 56.4069 239.646 60.7459V61.7474H246.989V60.7459C247.323 56.4069 247.323 50.0653 245.321 44.0574L244.987 43.39H237.978L238.311 44.725ZM149.195 44.725C150.864 50.3991 150.864 56.4069 150.53 60.7459V61.7474H236.643V60.7459C236.976 54.0705 236.643 48.7302 235.307 44.0574L234.974 43.39H148.861L149.195 44.725ZM52.4018 43.7237C48.0628 51.0666 48.0628 57.0744 48.7304 60.7459V61.7474H146.859V60.7459C147.526 55.4056 147.192 49.3977 145.524 44.0574L145.19 43.39H52.4018V43.7237Z" fill="#55372E" fill-opacity="0.7"/>
</svg>
