<svg width="130" height="225" viewBox="0 0 130 225" fill="none" xmlns="http://www.w3.org/2000/svg">
<path d="M2.4996 223.9C1.8996 223.9 1.09961 223.1 1.09961 222.5V2.49997C1.09961 1.79997 1.49961 1.29998 2.09961 1.09998H127.5C128.1 1.09998 128.9 1.89997 128.9 2.49997V222.5C128.9 223.1 128.1 223.9 127.5 223.9H2.4996ZM3.8996 221.1H126.1V3.89996H3.8996V221.1ZM64.9996 203.9C57.4996 203.9 49.2996 200.6 43.8996 198.5L43.6996 198.4C38.9996 196.5 32.5996 194 26.0996 193.9V131.1C31.7996 130.9 36.5996 129 42.0996 126.9L43.5996 126.3C50.3996 123.6 57.1996 121.1 64.9996 121.1C72.8996 121.1 80.7996 124 86.0996 126.3L87.3996 126.8C92.0996 128.7 97.8996 131.1 103.9 131.1V193.9C97.9996 194.1 92.8996 196.1 87.0996 198.3L86.1996 198.7C79.6996 201.3 72.1996 203.9 64.9996 203.9ZM64.9996 123.9C60.5996 123.9 55.9996 125.3 51.0996 126.7C49.0996 127.3 46.9996 127.9 44.9996 128.4H44.8996H44.7996C39.6996 130.6 34.6996 132.6 29.8996 133.1L28.8996 133.2V191.2L29.8996 191.3C34.4996 191.8 39.0996 193.5 43.8996 195.4L44.7996 195.8C50.7996 198.6 57.4996 201.1 64.8996 201.1C72.0996 201.1 78.9996 198.6 84.7996 196.3C85.8996 195.9 86.9996 195.5 87.9996 195.1C92.1996 193.5 96.0996 192 99.9996 191.6L101 191.5V133.6L100.1 133.5C95.5996 132.9 90.8996 131.4 84.8996 128.8C79.0996 126.6 71.9996 123.9 64.9996 123.9ZM19.9996 118.9C16.3996 118.9 13.5996 116.1 13.5996 112.5C13.5996 108.9 16.3996 106.1 19.9996 106.1C23.5996 106.1 26.3996 108.9 26.3996 112.5C26.3996 116.1 23.5996 118.9 19.9996 118.9ZM64.9996 103.9C57.3996 103.7 50.6996 101.2 43.8996 98.5L43.6996 98.4C38.9996 96.5 32.5996 94 26.0996 93.9V31.1C31.7996 30.9 36.5996 29 42.0996 26.9L43.5996 26.3C50.3996 23.6 57.1996 21.1 64.9996 21.1C70.5996 21.1 78.3996 23 86.0996 26.3L87.3996 26.8C92.0996 28.7 97.8996 31.1 103.9 31.1V93.9C97.9996 94.1 92.8996 96.1 87.0996 98.3L86.1996 98.7C80.7996 101 72.8996 103.9 64.9996 103.9ZM64.9996 23.9C60.2996 23.9 55.2996 25.5 50.0996 27.1C48.3996 27.6 46.6996 28.2 44.9996 28.7H44.8996H44.7996C39.6996 30.9 34.6996 32.9 29.8996 33.4L28.8996 33.5V91.5L29.8996 91.6C35.1996 92.1 40.3996 94.1 44.7996 96C50.3996 98.3 57.1996 101.1 64.9996 101.1C72.1996 101.1 79.0996 98.6 84.8996 96.3C85.9996 95.9 87.0996 95.5 88.0996 95.1C92.2996 93.5 96.1996 92 100.1 91.6L101.1 91.5V33.6L100.2 33.5C95.6996 32.9 90.9996 31.4 84.9996 28.8C79.0996 26.6 71.9996 23.9 64.9996 23.9Z" fill="#55372E" fill-opacity="0.7"/>
</svg>
