<svg width="220" height="136" viewBox="0 0 220 136" fill="none" xmlns="http://www.w3.org/2000/svg">
<path d="M207.4 134.6C206.7 134.6 206.1 134.1 206.1 133.5L198.6 50.6L197.4 51C178.3 56.6 147.6 60.1 115.1 60.4H114.2L111.9 109.9C111.9 110.8 111.4 111.2 110.6 111.2H106C105.2 111.2 104.7 110.7 104.7 109.9L102.4 60.4H101.5C69.9996 59.9 41.2996 56.5 22.6996 51L21.4996 50.7L13.9996 133.5C13.9996 134.1 13.3996 134.7 12.6996 134.7H7.1996C6.3996 134.7 5.8996 134.2 5.8996 133.4L8.1996 45.3L7.6996 45C3.1996 42.3 1.09961 39.6 1.09961 36.7V25.2C1.09961 10.1 56.4996 1.09998 110 1.09998C163.5 1.09998 218.9 10.1 219.1 25.2V36.7C219.1 39.6 216.9 42.4 212.5 45L212 45.3L214.3 133.5C214.3 134.3 213.8 134.8 213 134.8H207.4V134.6ZM207.6 47.2C205.4 48.3 203.5 49.1 201.6 49.7L200.8 49.9L208.3 132.1H211.4L209 46.4L207.6 47.2ZM8.3996 132H11.4996L18.7996 49.9L18.0996 49.6C17.3996 49.3 16.6996 49 15.9996 48.8C14.4996 48.2 13.1996 47.7 11.9996 47.1L10.5996 46.4L8.3996 132ZM107.3 107.6H109.3L111.4 60.6H104.9L107.3 107.6ZM3.59961 36.6C3.59961 46.8 47.2996 58.1 109.9 58.1C172.4 58.1 215.9 46.9 216.2 36.7L217 31.5L214.3 33.3L213.9 33.7L213.1 34.1L212.4 34.6L211.5 35.1L210.8 35.5L209.7 36L209 36.5L207.9 37L207.2 37.4L205.9 37.8L205.1 38L203.6 38.5L202.8 38.7L201.3 39.2L200.5 39.4L198.9 39.9L198 40.1L196.4 40.6L195.3 40.8L193.6 41.3L192.5 41.5L190.6 42L189.5 42.2L187.6 42.7L186.3 42.9L184.4 43.4L183.1 43.6L181.2 44.1L179.9 44.3L177.9 44.5L176.5 44.7L174.5 44.9L173.1 45.1L171.1 45.3L169.7 45.5L167.5 45.7L165.8 45.9L163.5 46.1L161.8 46.3L159.5 46.5L157.8 46.7L155.5 46.9L153.6 47.1L151.3 47.3L149.4 47.5L147.1 47.7L145.2 47.9L142.7 48.1H141L138.4 48.3H136.7L134.1 48.5H89.7996L87.0996 48.3H85.3996L82.6996 48.1H80.9996L78.2996 47.9H76.7996L73.8996 47.7H72.3996L69.6996 47.5H68.1996L65.5996 47.3L64.4996 47.1L61.6996 46.9L60.5996 46.7L57.7996 46.5L56.6996 46.3L54.1996 46.1L53.0996 45.9L50.5996 45.4L49.6996 45.2L46.8996 44.7L46.0996 44.5L43.4996 44L42.5996 43.8L39.9996 43.3L39.0996 43.1L36.7996 42.6L35.8996 42.4L33.5996 41.9L32.6996 41.7L30.5996 41.2L29.6996 41L27.5996 40.5L21.1996 38.9L19.5996 38.4L18.5996 38.2L16.9996 37.7L15.9996 37.5L14.6996 37.1L13.6996 36.8L12.4996 36.4L11.7996 36L10.6996 35.5L9.9996 35.1L9.09961 34.6L8.3996 34.1L7.4996 33.6L6.79961 33.1L5.8996 32.6L5.29961 32.2L3.1996 30.1V36.6H3.59961ZM109.9 3.59998C53.2996 3.59998 13.9996 12.8 5.79961 21.4C4.59961 22.7 3.9996 24 3.9996 25.3C4.2996 27.3 5.2996 28.9 6.9996 30C18.8996 39.5 62.1996 46.5 110.1 46.5C157.8 46.5 201.2 39.4 213.3 29.7C214.9 28.7 215.9 27 216.2 25.2V25.1V25C216.2 14.9 172.5 3.59998 109.9 3.59998Z" fill="#55372E" fill-opacity="0.7"/>
</svg>
