<svg width="71" height="70" viewBox="0 0 71 70" fill="none" xmlns="http://www.w3.org/2000/svg">
<g clip-path="url(#clip0)">
<path d="M27.4254 0L39.5383 12.0837L51.625 0H27.4254ZM35.4171 45.3717L22.8958 32.8504C22.7675 32.7221 22.7092 32.5617 22.61 32.4187L0 9.81458V30.8758L24.9579 55.8308L35.4171 45.3717ZM55.7667 33.1654L41.6121 47.4279L41.6004 47.4367L29.0821 59.955L39.1242 70H39.9117L66.2258 43.6246L55.7667 33.1654ZM70 39.1504V18.8242L59.8792 29.0237L70 39.1504ZM22.8958 62.0171L0 39.1242V67.0833C0 67.8569 0.307291 68.5987 0.854272 69.1457C1.40125 69.6927 2.14312 70 2.91667 70H30.8787L22.8958 62.0171ZM48.1512 70H67.0833C67.8569 70 68.5987 69.6927 69.1457 69.1457C69.6927 68.5987 70 67.8569 70 67.0833V48.1017L48.1512 70ZM41.6179 18.2525L41.615 18.2554L29.1462 30.8554L39.5296 41.2387L70.0058 10.5408V2.91667C70.0058 2.14312 69.6985 1.40125 69.1516 0.854272C68.6046 0.307291 67.8627 0 67.0892 0L59.8733 0L41.6208 18.2525H41.6179ZM25.0308 26.5912L35.4142 16.2079L19.1683 0H2.91667C2.34217 4.57967e-05 1.78048 0.169753 1.30206 0.487829C0.823653 0.805905 0.449831 1.25818 0.2275 1.78792L25.0308 26.5912Z" fill="white"/>
</g>
<defs>
<clipPath id="clip0">
<rect width="70.0058" height="70" fill="white"/>
</clipPath>
</defs>
</svg>
