<svg width="173" height="47" viewBox="0 0 173 47" fill="none" xmlns="http://www.w3.org/2000/svg">
<path d="M19.2834 13.3645L23.2473 1.33912H27.7467L19.8727 21.1315L13.9537 8.83825L8.03473 21.1315L0.160645 1.33912H4.66012L8.62395 13.3645L13.9537 0.401733L19.2834 13.3645ZM28.4529 10.713C28.4529 9.28463 28.7029 7.98121 29.2029 6.80278C29.7027 5.60648 30.3991 4.5709 31.2919 3.69599C32.2025 2.82109 33.2559 2.15153 34.4522 1.6873C35.6485 1.20521 36.9519 0.964168 38.3625 0.964168C39.7909 0.964168 41.1032 1.20521 42.2996 1.6873C43.5137 2.15153 44.5671 2.82109 45.4599 3.69599C46.3526 4.5709 47.0401 5.60648 47.5222 6.80278C48.022 7.98121 48.2721 9.28463 48.2721 10.713C48.2721 12.1414 48.022 13.4628 47.5222 14.6769C47.0401 15.8732 46.3526 16.9177 45.4599 17.8104C44.585 18.6854 43.5405 19.3727 42.3263 19.8727C41.13 20.3548 39.8088 20.5958 38.3625 20.5958C36.9162 20.5958 35.586 20.3548 34.3719 19.8727C33.1756 19.3727 32.1311 18.6854 31.2383 17.8104C30.3634 16.9177 29.676 15.8732 29.1761 14.6769C28.694 13.4628 28.4529 12.1414 28.4529 10.713ZM32.5239 10.713C32.5239 11.9094 32.7649 12.9717 33.247 13.9002C33.7469 14.8287 34.4344 15.5607 35.3093 16.0963C36.202 16.6141 37.2198 16.873 38.3625 16.873C39.5231 16.873 40.5408 16.6141 41.4157 16.0963C42.2906 15.5607 42.9691 14.8287 43.4512 13.9002C43.9511 12.9717 44.2011 11.9094 44.2011 10.713C44.2011 9.51674 43.9601 8.45437 43.478 7.52591C42.9959 6.59744 42.3174 5.87431 41.4425 5.35652C40.5676 4.82086 39.5409 4.55304 38.3625 4.55304C37.2198 4.55304 36.202 4.82086 35.3093 5.35652C34.4344 5.87431 33.7469 6.59744 33.247 7.52591C32.7649 8.45437 32.5239 9.51674 32.5239 10.713ZM50.1615 10.713C50.1615 9.28463 50.4114 7.98121 50.9114 6.80278C51.4114 5.60648 52.1077 4.5709 53.0005 3.69599C53.9111 2.82109 54.9645 2.15153 56.1608 1.6873C57.3571 1.20521 58.6605 0.964168 60.0711 0.964168C61.4994 0.964168 62.8118 1.20521 64.0081 1.6873C65.2222 2.15153 66.2757 2.82109 67.1685 3.69599C68.0612 4.5709 68.7486 5.60648 69.2307 6.80278C69.7307 7.98121 69.9806 9.28463 69.9806 10.713C69.9806 12.1414 69.7307 13.4628 69.2307 14.6769C68.7486 15.8732 68.0612 16.9177 67.1685 17.8104C66.2935 18.6854 65.249 19.3727 64.0349 19.8727C62.8386 20.3548 61.5173 20.5958 60.0711 20.5958C58.6248 20.5958 57.2946 20.3548 56.0805 19.8727C54.8841 19.3727 53.8396 18.6854 52.9469 17.8104C52.072 16.9177 51.3846 15.8732 50.8846 14.6769C50.4025 13.4628 50.1615 12.1414 50.1615 10.713ZM54.2325 10.713C54.2325 11.9094 54.4735 12.9717 54.9556 13.9002C55.4556 14.8287 56.1429 15.5607 57.0178 16.0963C57.9106 16.6141 58.9283 16.873 60.0711 16.873C61.2316 16.873 62.2494 16.6141 63.1243 16.0963C63.9992 15.5607 64.6777 14.8287 65.1598 13.9002C65.6597 12.9717 65.9097 11.9094 65.9097 10.713C65.9097 9.51674 65.6686 8.45437 65.1865 7.52591C64.7045 6.59744 64.026 5.87431 63.1511 5.35652C62.2761 4.82086 61.2495 4.55304 60.0711 4.55304C58.9283 4.55304 57.9106 4.82086 57.0178 5.35652C56.1429 5.87431 55.4556 6.59744 54.9556 7.52591C54.4735 8.45437 54.2325 9.51674 54.2325 10.713ZM79.3156 20.087H72.9414V1.33912H79.3156C81.2975 1.33912 83.0205 1.72301 84.4847 2.49078C85.9666 3.25855 87.1094 4.3477 87.9128 5.75826C88.7342 7.15095 89.1448 8.80255 89.1448 10.713C89.1448 12.6057 88.7342 14.2572 87.9128 15.6678C87.1094 17.0784 85.9666 18.1675 84.4847 18.9353C83.0205 19.7031 81.2975 20.087 79.3156 20.087ZM79.1817 4.82086H76.8784V16.6052H79.1817C80.2887 16.6052 81.2886 16.3998 82.1814 15.9892C83.092 15.5786 83.8151 14.9447 84.3508 14.0876C84.9043 13.2127 85.181 12.0878 85.181 10.713C85.181 9.3382 84.9043 8.22225 84.3508 7.36521C83.8151 6.49031 83.092 5.84753 82.1814 5.43686C81.2886 5.0262 80.2887 4.82086 79.1817 4.82086ZM104.293 9.58817L103.088 20.087H99.0708L101.856 0.401733L109.703 12.4807L117.551 0.401733L120.363 20.087H116.346L115.14 9.58817L109.703 18.3461L104.293 9.58817ZM123.342 1.33912H127.225V20.087H123.342V1.33912ZM131.266 1.33912H135.096V16.7391H142.569V20.087H131.266V1.33912ZM144.763 1.33912H148.593V16.7391H156.065V20.087H144.763V1.33912ZM159.999 13.5788C160.625 14.7393 161.294 15.6321 162.008 16.257C162.723 16.8819 163.598 17.1944 164.633 17.1944C166.347 17.1944 167.204 16.4624 167.204 14.9983C167.204 14.3912 167.016 13.9002 166.641 13.5252C166.266 13.1324 165.776 12.8021 165.168 12.5343C164.562 12.2485 163.901 11.9718 163.186 11.704C162.723 11.5254 162.205 11.3112 161.633 11.0612C161.08 10.7934 160.545 10.4541 160.026 10.0435C159.509 9.61495 159.08 9.08822 158.741 8.4633C158.402 7.82052 158.232 7.04382 158.232 6.13321C158.232 5.09761 158.499 4.19594 159.035 3.42817C159.571 2.6604 160.312 2.06226 161.258 1.63373C162.222 1.18735 163.33 0.964168 164.579 0.964168C165.74 0.964168 166.74 1.16057 167.579 1.55339C168.419 1.9462 169.115 2.45507 169.668 3.07999C170.24 3.68707 170.686 4.33878 171.007 5.03512L168.061 6.77599C167.669 6.04394 167.177 5.44579 166.588 4.98156C165.999 4.51733 165.294 4.28521 164.472 4.28521C163.74 4.28521 163.169 4.46377 162.758 4.82086C162.366 5.16011 162.169 5.62434 162.169 6.21356C162.169 6.69565 162.374 7.10631 162.785 7.44556C163.196 7.78481 163.722 8.08834 164.365 8.35617C165.026 8.60614 165.731 8.87396 166.481 9.15965C167.284 9.44533 168.052 9.82921 168.784 10.3113C169.517 10.7755 170.106 11.3826 170.552 12.1325C171.017 12.8645 171.248 13.7841 171.248 14.8911C171.248 16.0874 170.963 17.1141 170.391 17.9711C169.82 18.8282 169.035 19.4798 168.034 19.9263C167.035 20.3727 165.901 20.5958 164.633 20.5958C163.526 20.5958 162.481 20.3816 161.499 19.953C160.518 19.5066 159.651 18.8996 158.901 18.1318C158.151 17.3462 157.58 16.4624 157.187 15.4803L159.999 13.5788Z" fill="#2D2824"/>
<path d="M75.5279 41.496V43H68.4399V41.496H71.1919V35.784H69.0639V34.616C69.6399 34.5307 70.1306 34.4187 70.5359 34.28C70.9519 34.1413 71.3359 33.976 71.6879 33.784H73.0319V41.496H75.5279ZM81.0897 38.984C81.4417 38.984 81.815 38.8933 82.2097 38.712C82.6043 38.5307 82.9883 38.216 83.3617 37.768C83.2657 36.7973 83.015 36.0933 82.6097 35.656C82.2043 35.2187 81.703 35 81.1057 35C80.8497 35 80.6097 35.0427 80.3857 35.128C80.1617 35.2133 79.9643 35.3413 79.7937 35.512C79.6337 35.6827 79.5003 35.896 79.3937 36.152C79.2977 36.3973 79.2497 36.6853 79.2497 37.016C79.2497 37.656 79.4097 38.1467 79.7297 38.488C80.0603 38.8187 80.5137 38.984 81.0897 38.984ZM78.7056 42.136C78.951 42.36 79.239 42.5467 79.5697 42.696C79.9003 42.8347 80.2523 42.904 80.6257 42.904C80.9777 42.904 81.3083 42.84 81.6177 42.712C81.9377 42.584 82.2203 42.3707 82.4657 42.072C82.7217 41.7733 82.9297 41.384 83.0897 40.904C83.2497 40.4133 83.3457 39.8107 83.3777 39.096C82.983 39.4693 82.551 39.768 82.0817 39.992C81.623 40.2053 81.1697 40.312 80.7217 40.312C80.263 40.312 79.8363 40.2427 79.4417 40.104C79.0577 39.9653 78.727 39.7627 78.4497 39.496C78.1723 39.2187 77.9537 38.872 77.7937 38.456C77.6337 38.04 77.5537 37.56 77.5537 37.016C77.5537 36.4933 77.6497 36.024 77.8417 35.608C78.0337 35.1813 78.2897 34.8187 78.6097 34.52C78.9297 34.2213 79.303 33.992 79.7297 33.832C80.1563 33.672 80.6043 33.592 81.0737 33.592C81.6177 33.592 82.1297 33.6933 82.6097 33.896C83.1003 34.088 83.527 34.392 83.8897 34.808C84.263 35.2133 84.5563 35.7307 84.7697 36.36C84.983 36.9787 85.0897 37.7147 85.0897 38.568C85.0897 39.6027 84.967 40.488 84.7217 41.224C84.487 41.96 84.167 42.5627 83.7617 43.032C83.367 43.512 82.9083 43.8587 82.3857 44.072C81.863 44.296 81.3243 44.408 80.7697 44.408C80.0977 44.408 79.5057 44.296 78.9937 44.072C78.4817 43.848 78.055 43.576 77.7137 43.256L78.7056 42.136ZM89.5314 44.216C89.5741 43.288 89.6594 42.44 89.7874 41.672C89.9261 40.8933 90.1181 40.1573 90.3634 39.464C90.6087 38.76 90.9234 38.0773 91.3074 37.416C91.6914 36.744 92.1661 36.056 92.7314 35.352H87.2434V33.784H94.7634V34.92C94.1021 35.6773 93.5634 36.3973 93.1474 37.08C92.7314 37.752 92.4007 38.4453 92.1554 39.16C91.9207 39.8747 91.7447 40.6427 91.6274 41.464C91.5207 42.2747 91.4461 43.192 91.4034 44.216H89.5314ZM100.885 41.784C101.141 41.784 101.376 41.7413 101.589 41.656C101.813 41.5707 102.011 41.448 102.181 41.288C102.352 41.1173 102.485 40.9147 102.581 40.68C102.677 40.4347 102.725 40.1573 102.725 39.848C102.725 39.24 102.56 38.7867 102.229 38.488C101.909 38.1893 101.461 38.04 100.885 38.04C100.544 38.04 100.181 38.1307 99.7972 38.312C99.4132 38.4827 99.0345 38.7867 98.6612 39.224C98.7785 40.1307 99.0345 40.7867 99.4292 41.192C99.8238 41.5867 100.309 41.784 100.885 41.784ZM103.269 34.904C103.035 34.68 102.747 34.4987 102.405 34.36C102.075 34.2107 101.728 34.136 101.365 34.136C101.003 34.136 100.656 34.2 100.325 34.328C100.005 34.456 99.7172 34.6693 99.4612 34.968C99.2158 35.2667 99.0132 35.6613 98.8532 36.152C98.7038 36.632 98.6185 37.224 98.5972 37.928C98.9918 37.544 99.4238 37.2453 99.8931 37.032C100.363 36.808 100.821 36.696 101.269 36.696C101.728 36.696 102.149 36.76 102.533 36.888C102.917 37.016 103.248 37.2133 103.525 37.48C103.813 37.736 104.037 38.0613 104.197 38.456C104.357 38.8507 104.437 39.3147 104.437 39.848C104.437 40.36 104.341 40.824 104.149 41.24C103.957 41.6453 103.696 41.992 103.365 42.28C103.045 42.568 102.672 42.792 102.245 42.952C101.819 43.112 101.371 43.192 100.901 43.192C100.368 43.192 99.8558 43.096 99.3652 42.904C98.8852 42.7013 98.4585 42.3973 98.0852 41.992C97.7225 41.5867 97.4292 41.0693 97.2052 40.44C96.9918 39.8107 96.8852 39.0693 96.8852 38.216C96.8852 37.224 97.0025 36.376 97.2372 35.672C97.4825 34.968 97.8078 34.392 98.2132 33.944C98.6185 33.496 99.0772 33.1653 99.5892 32.952C100.112 32.7387 100.656 32.632 101.221 32.632C101.893 32.632 102.48 32.744 102.981 32.968C103.493 33.192 103.92 33.464 104.261 33.784L103.269 34.904Z" fill="#2D2824"/>
</svg>
