<svg width="35" height="35" viewBox="0 0 35 35" fill="none" xmlns="http://www.w3.org/2000/svg">
<g clip-path="url(#clip0)">
<path d="M-0.000431459 16.9761C-0.000431459 7.21766 7.63832 0 17.4996 0C27.3608 0 34.9996 7.21766 34.9996 16.9761C34.9996 26.7291 27.3608 33.9522 17.4996 33.9522C15.7332 33.9522 14.0302 33.7181 12.441 33.2795C12.1304 33.195 11.8002 33.2213 11.5069 33.3539L8.02004 34.8862C7.80965 34.9797 7.57948 35.02 7.34986 35.0034C7.12023 34.9868 6.89822 34.914 6.70342 34.7913C6.50862 34.6686 6.34703 34.4998 6.23291 34.2999C6.1188 34.0999 6.05567 33.875 6.0491 33.6448L5.94629 30.5233C5.93969 30.3356 5.89543 30.1512 5.81614 29.9809C5.73685 29.8107 5.62414 29.6582 5.48472 29.5323C3.73021 27.95 2.33332 26.0116 1.38727 23.8466C0.441219 21.6816 -0.0322423 19.3397 -0.00152521 16.9772L-0.000431459 16.9761ZM12.1336 13.7802L7.00066 21.9494C6.48769 22.7183 7.46769 23.613 8.19722 23.0431L13.7228 18.8562C13.9043 18.7148 14.1277 18.638 14.3578 18.638C14.5878 18.638 14.8113 18.7148 14.9927 18.8562L19.0713 21.9209C19.362 22.1367 19.694 22.2902 20.0467 22.3719C20.3993 22.4537 20.765 22.4619 21.121 22.3962C21.477 22.3304 21.8156 22.192 22.1157 21.9896C22.4158 21.7872 22.6711 21.5252 22.8655 21.2198L27.9985 13.0506C28.5114 12.2817 27.5314 11.4045 26.8019 11.9569L21.2763 16.1438C21.0979 16.285 20.8771 16.3618 20.6496 16.3618C20.4221 16.3618 20.2012 16.285 20.0229 16.1438L15.9388 13.0791C15.6485 12.8596 15.3157 12.703 14.9616 12.6191C14.6075 12.5352 14.2398 12.526 13.8819 12.5919C13.524 12.6578 13.1837 12.7975 12.8827 13.0021C12.5818 13.2067 12.3267 13.4716 12.1336 13.7802Z" fill="white"/>
</g>
<defs>
<clipPath id="clip0">
<rect width="35" height="35" fill="white"/>
</clipPath>
</defs>
</svg>
