<svg width="250" height="142" viewBox="0 0 250 142" fill="none" xmlns="http://www.w3.org/2000/svg">
<g clip-path="url(#clip0)">
<path d="M249.722 65.1448C249.722 64.8664 249.722 64.8665 249.443 64.5881L249.165 45.3787C249.165 45.1003 249.165 45.1003 248.886 44.8219L248.608 41.7596C248.608 41.4812 248.33 41.2028 248.33 40.9244V40.646L248.051 36.1916V35.9132C248.051 35.9132 248.051 35.9132 248.051 35.6348C248.051 35.078 247.494 34.7996 247.216 34.5212L121.381 -0.27832C121.102 -0.27832 120.824 -0.27832 120.824 -0.27832L102.728 4.73287C102.728 4.73287 102.45 4.7328 102.45 5.01119C102.45 5.01119 102.45 5.01121 102.45 5.28961C102.45 5.28961 102.45 5.28963 102.45 5.56802C102.45 5.84642 102.171 5.84645 102.171 6.12485L102.45 9.74397L97.1603 8.07357C96.8819 8.07357 96.6035 8.07357 96.3251 8.07357L77.1158 13.6415C77.1158 13.6415 76.8374 13.6415 76.8374 13.9199C76.8374 13.9199 76.8374 13.9199 76.559 14.1983C76.559 14.1983 76.559 14.1983 76.2806 14.4767C76.2806 14.7551 76.0022 14.7551 76.0022 15.0335V17.2607L71.5479 15.8687C71.2695 15.8687 70.9911 15.8687 70.7127 15.8687L51.5033 21.4367C50.9465 21.715 50.6681 21.9934 50.6681 22.5502V22.8286V23.107V25.0558L47.049 23.6638C46.7706 23.6638 46.4922 23.6638 46.2138 23.6638L25.3341 30.0669H25.0557C25.0557 30.0669 25.0557 30.0669 24.7773 30.3453C24.7773 30.3453 24.7772 30.3453 24.4989 30.6237C24.4989 30.9021 24.2205 30.9021 24.2205 31.1805C24.2205 31.1805 24.2205 31.1805 24.2205 31.4589L24.4989 35.6348L19.2093 33.4077C18.9309 33.4077 18.6525 33.4077 18.3741 33.4077L0.835155 38.9756C0.278362 39.254 0 39.5324 0 40.0892C0 40.3676 -2.54921e-05 40.3676 0.278371 40.646V40.9244V45.3787C0.278371 45.9355 0.556776 46.4923 1.11357 46.4923L3.34075 47.3275L0.835155 48.1626C0.278362 48.441 0 48.7195 0 49.2763C0 49.5547 -2.54921e-05 49.833 0.278371 50.1114V65.9801C0.278371 66.2585 0.278388 66.2584 0.556784 66.5368C0.278388 66.8152 0.278371 67.0937 0.278371 67.3721V71.8263C0.278371 72.3831 0.556776 72.94 1.11357 72.94L145.045 140.869C145.323 140.869 145.323 140.869 145.601 140.869C145.88 140.869 146.158 140.869 146.437 140.59L164.254 128.062C164.532 127.784 164.811 127.227 164.811 126.949L164.532 121.938C164.532 121.659 164.532 121.659 164.254 121.381L163.975 102.45L170.935 97.9957L195.713 109.132C195.991 109.132 195.991 109.132 196.269 109.132C196.548 109.132 196.826 109.132 197.105 108.853L214.644 96.0469C214.922 95.7685 215.2 95.2117 215.2 94.9333L214.922 89.9221C214.922 89.6437 214.922 89.6438 214.644 89.3654L214.365 75.1671L230.234 82.6839C230.512 82.6839 230.512 82.6839 230.791 82.6839C231.069 82.6839 231.347 82.6838 231.626 82.4054L249.165 70.156C249.443 69.8776 249.722 69.3208 249.722 69.0424V65.1448ZM179.566 93.8197L193.764 84.6326V100.223L184.298 96.0469L179.566 93.8197ZM196.548 99.3876V83.519H196.269L211.86 73.4967L212.416 89.9221L196.548 99.3876ZM162.305 101.615L144.209 112.751L131.403 106.626L125.557 103.564L127.227 102.45L144.488 109.967C144.766 109.967 144.766 109.967 145.045 109.967C145.323 109.967 145.601 109.967 145.88 109.688L163.697 97.9957C163.975 97.7173 164.254 97.1604 164.254 96.882V92.9845L168.151 94.3765C168.43 94.3765 168.43 94.3765 168.708 94.3765C168.987 94.3765 169.265 94.3764 169.543 94.098L187.361 82.4054C187.639 82.1271 187.918 81.5703 187.918 81.2919V77.6727L189.866 78.2295C190.145 78.2295 190.145 78.2295 190.423 78.2295C190.702 78.2295 190.98 78.2295 190.98 77.9511L209.632 67.0936C210.189 66.8152 210.189 66.2585 210.189 65.9801V62.9177L213.53 64.0313H213.808C214.087 64.0313 214.365 64.0312 214.644 63.7529L229.955 53.7306C230.234 53.4522 230.512 52.8954 230.512 52.617V49.5546L232.739 50.1114H233.018C233.296 50.1114 233.575 50.1114 233.575 49.833L246.102 42.038L246.381 45.6571L213.53 67.0936C212.973 67.372 212.416 67.6504 211.86 67.9288H212.138L162.305 101.615ZM124.165 107.461L139.477 114.143L142.261 115.535V130.29L124.165 122.216V107.461ZM122.216 102.45C121.938 102.728 121.659 103.007 121.659 103.285L121.381 103.564L40.0891 69.0424C40.0891 68.764 40.3675 68.764 40.3675 68.4856V64.3097L124.443 101.058L122.216 102.45ZM37.5835 63.1961V67.3721L22.8285 74.8887V61.5257L25.3341 60.4121L28.6748 59.2985L37.8619 63.1961C38.1403 63.1961 37.8619 63.1961 37.5835 63.1961ZM20.3229 61.2473V74.6103L2.78396 66.2584V52.8954L7.79507 55.1226L20.3229 61.2473ZM37.0267 70.7128L121.102 106.348V121.381L24.7773 76.8375L37.0267 70.7128ZM167.873 89.6438C168.151 89.6438 168.151 89.6438 168.43 89.6438C168.708 89.6438 168.987 89.6438 168.987 89.3654L184.855 78.7862V80.7351L168.151 91.5925L27.5612 35.9132V33.6861L167.873 89.6438ZM218.541 68.4856L228.007 62.3609V72.6616L218.541 68.4856ZM246.938 64.0313L230.512 73.2183V60.4121L246.659 49.833L246.938 64.0313ZM121.381 2.50564L244.154 36.47L232.461 43.7084L107.461 6.12485L121.381 2.50564ZM104.677 10.0224V8.07357L232.461 46.4923H232.739C233.018 46.4923 233.296 46.4923 233.296 46.2139L246.102 38.1404V39.8107L232.739 48.1626L229.955 47.3275C229.677 47.0491 229.677 46.7707 229.12 46.7707L190.98 35.6348L104.677 10.0224ZM96.3251 11.136L213.53 45.1003L225.501 48.7195L213.252 56.7929L81.8485 15.3119L96.3251 11.136ZM78.7862 17.2607L213.252 59.5769H213.53C213.808 59.5769 214.087 59.5769 214.087 59.2985L227.45 50.6683V52.617L213.252 61.8041L209.354 60.6905C209.076 60.4121 209.076 60.4121 208.797 60.1337L78.5078 18.3743L78.7862 17.2607ZM71.2695 18.931L107.461 30.6237C116.091 33.9645 124.722 36.7484 133.352 38.9756L205.178 62.0825L189.588 70.9912L56.5144 23.3854L71.2695 18.931ZM53.7305 25.0558L189.588 73.4967C189.866 73.4967 189.866 73.4967 190.145 73.4967C190.423 73.4967 190.702 73.4967 190.702 73.2183L207.684 63.4744V65.7017L190.145 75.724L136.971 56.7929L53.7305 26.4478V25.0558ZM47.049 27.2829L82.127 40.0892C84.3541 41.2027 86.5813 42.0379 89.0869 42.8731C89.3653 42.8731 89.3652 42.8731 89.3652 43.1515L135.857 59.8553L183.185 77.1159L168.151 87.1381L30.3452 32.5725L47.049 27.2829ZM19.2093 36.7485L160.078 92.1493L145.045 101.893L5.56793 40.9244L19.2093 36.7485ZM3.06234 42.8731L144.488 104.677C144.766 104.677 144.766 104.677 145.045 104.677C145.323 104.677 145.601 104.677 145.601 104.399L161.47 94.098V96.0469L145.045 106.904L3.06234 44.8219V42.8731ZM25.3341 57.6282L22.5501 58.7418L22.2717 58.4633L13.0846 54.5658L5.0111 50.3899L7.23828 49.5546L25.3341 57.6282ZM145.323 138.92L3.06234 71.8263V69.5992L144.488 135.301C145.045 135.579 145.323 135.579 145.88 135.301L162.027 125.278V127.506L145.323 138.92ZM161.748 121.938L145.045 131.403V116.37L161.47 105.791L161.748 121.938ZM196.269 107.461L173.719 97.4388L176.503 95.49L178.174 96.3253L195.156 103.842C195.713 104.12 195.991 104.12 196.548 103.842L212.416 93.5413V95.7684L196.269 107.461ZM231.069 81.0135L214.644 73.2183V70.9912L215.479 70.4343L230.234 77.3943C230.791 77.6727 231.069 77.6727 231.626 77.3943L247.494 67.3721V69.5992L231.069 81.0135Z" fill="#55372E" fill-opacity="0.7"/>
</g>
<defs>
<clipPath id="clip0">
<rect width="250" height="141.982" fill="white"/>
</clipPath>
</defs>
</svg>
