<svg width="216" height="225" viewBox="0 0 216 225" fill="none" xmlns="http://www.w3.org/2000/svg">
<path d="M211.483 93.4368L85.1151 4.95231L81.6194 58.7299L207.987 147.214L211.483 93.4368ZM11.7856 128.874L5.0306 132.611L131.569 221.213L138.376 217.516L11.7856 128.874ZM3.69185 129.356L10.2106 125.751L13.7019 72.0736L7.18311 75.6524L3.69185 129.356ZM44.2963 90.4312L17.1975 72.1218L13.6975 125.952L140.091 214.454L143.841 164.01L44.9613 94.7755C44.4231 94.4518 44.0775 93.8437 44.1213 93.1699L44.3006 90.4312H44.2963ZM147.17 166.342L146.571 174.387L165.541 187.67L172.348 183.973L147.17 166.342ZM146.273 178.43L143.351 217.766H143.346C143.325 218.072 143.224 218.374 143.036 218.641C142.996 218.698 142.957 218.75 142.913 218.798C142.765 219.017 142.559 219.209 142.31 219.345L132.295 224.788C131.735 225.094 131.022 225.076 130.462 224.687L0.843723 133.927C0.305598 133.604 -0.0400276 132.996 0.00372248 132.322L3.76185 74.5105C3.7881 73.9199 4.11185 73.3555 4.66748 73.0493L14.4237 67.6943C14.45 67.6811 14.4806 67.6636 14.5069 67.6505C15.0887 67.143 15.9637 67.0686 16.6331 67.5193L35.1919 80.058L37.7338 40.9717C37.76 40.3811 38.0838 39.8167 38.6394 39.5105L48.3957 34.1555C48.4263 34.138 48.4613 34.1205 48.4919 34.1073C49.0694 33.6086 49.9313 33.5386 50.5963 33.9848L69.1332 46.4667L71.6794 7.28418C71.7057 6.69356 72.0294 6.12918 72.5851 5.82293L82.3413 0.467926C82.3763 0.450426 82.4069 0.432926 82.4419 0.415426C83.0326 -0.0876998 83.9076 -0.14895 84.5726 0.314801L214.191 91.0743C214.729 91.398 215.075 92.0062 215.031 92.6799L211.268 150.526H211.264C211.246 150.837 211.141 151.143 210.953 151.414C210.914 151.471 210.875 151.524 210.831 151.572C210.682 151.791 210.476 151.983 210.227 152.119L200.213 157.561C199.653 157.867 198.94 157.85 198.38 157.461L179.943 144.55L177.318 184.218H177.314C177.296 184.529 177.191 184.835 177.003 185.106C176.964 185.163 176.925 185.216 176.881 185.264C176.732 185.483 176.526 185.675 176.277 185.811L166.263 191.253C165.703 191.559 164.99 191.542 164.43 191.153L146.273 178.439V178.43ZM38.5431 82.3199L44.5631 86.3887L47.6738 38.5348L41.155 42.1136L38.5431 82.3243V82.3199ZM78.2463 56.8005L51.1738 38.5698L47.6738 92.413L174.046 180.898L177.375 130.519C177.384 130.366 177.415 130.222 177.458 130.082L78.9157 61.0792C78.3776 60.7555 78.0319 60.1474 78.0757 59.4736L78.2507 56.7961L78.2463 56.8005ZM180.753 132.387L180.219 140.477L199.5 153.978L206.307 150.281L180.757 132.387H180.753ZM72.4888 48.7155L78.5088 52.7711L81.6238 4.84293L75.1051 8.42169L72.4844 48.7199L72.4888 48.7155Z" fill="#55372E" fill-opacity="0.7"/>
</svg>
