<svg width="156" height="225" viewBox="0 0 156 225" fill="none" xmlns="http://www.w3.org/2000/svg">
<path d="M1.77624 225C0.888086 225 0 224.112 0 223.224V1.77624C0 0.592033 0.592033 0 1.77624 0H153.947C155.132 0 155.724 0.592033 155.724 1.77624V223.224C155.724 224.408 155.132 225 153.947 225H1.77624ZM3.55258 221.447H151.579V190.362H150.395C143.585 190.658 139.441 191.842 135.592 193.026L135 193.322C129.967 194.803 124.934 196.283 115.461 196.283C105.987 196.283 100.954 194.803 95.921 193.322C91.4802 191.842 87.0394 190.362 77.5657 190.362C68.6842 190.362 64.2434 191.842 59.5065 193.322H59.2105C54.7697 194.803 50.0329 196.283 39.671 196.283C30.1974 196.283 25.1644 194.803 20.1315 193.322L19.5394 193.026C15.6907 191.842 11.546 190.658 4.73677 190.362H3.55258V221.447ZM77.5657 186.809C87.0394 186.809 92.0723 188.289 97.1052 189.77C101.546 191.25 105.987 192.73 115.461 192.73C124.342 192.73 128.783 191.25 133.52 189.77H133.816L135.296 189.474C139.145 188.289 143.289 187.105 150.395 187.105H151.579V171.118H150.395C143.585 171.414 139.737 172.599 135.592 173.783L135 174.079C129.967 175.559 124.934 177.039 115.461 177.039C105.987 177.039 100.954 175.559 95.921 174.079C91.4802 172.599 87.0394 171.118 77.5657 171.118C68.6842 171.118 64.2434 172.599 59.5065 174.079H59.2105C54.7697 175.559 50.0329 177.039 39.671 177.039C30.1974 177.039 25.1644 175.559 20.1315 174.079L19.5394 173.783C15.3947 172.599 11.546 171.414 4.73677 171.118H3.55258V187.105H4.73677C13.0262 187.401 17.171 188.585 21.3157 190.066C25.7565 191.546 30.4934 193.026 39.671 193.026C48.5526 193.026 52.9934 191.546 57.7303 190.066H58.0262C62.467 188.289 67.4999 186.809 77.5657 186.809ZM77.5657 167.27C87.0394 167.27 92.0723 168.75 97.1052 170.23C101.546 171.711 105.987 173.191 115.461 173.191C124.342 173.191 128.783 171.711 133.52 170.23H133.816L135.296 169.934C139.145 168.75 143.289 167.566 150.395 167.566H151.579V151.579H150.395C143.585 151.875 139.441 153.059 135.592 154.243L135 154.539C129.967 156.02 124.934 157.5 115.461 157.5C105.987 157.5 100.954 156.02 95.921 154.539C91.4802 153.059 87.0394 151.579 77.5657 151.579C68.6842 151.579 64.2434 153.059 59.5065 154.539H59.2105C54.7697 156.02 50.0329 157.5 39.671 157.5C30.1974 157.5 25.1644 156.02 20.1315 154.539C15.9868 153.059 11.842 151.875 4.73677 151.875H3.55258V167.862H4.73677C13.0262 168.158 17.171 169.342 21.3157 170.822C25.7565 172.302 30.4934 173.783 39.671 173.783C48.5526 173.783 52.9934 172.302 57.7303 170.822H58.0262C62.467 168.75 67.4999 167.27 77.5657 167.27ZM77.5657 147.73C87.0394 147.73 92.0723 149.21 97.1052 150.691C101.546 152.171 105.987 153.651 115.461 153.651C124.342 153.651 128.783 152.171 133.52 150.691H133.816L135.296 150.395C139.145 149.21 143.289 148.026 150.395 148.026H151.579V72.8289H150.395C143.585 73.1249 139.441 74.3092 135.592 75.4934L135 75.7894C129.967 77.2697 124.934 78.7499 115.461 78.7499C105.987 78.7499 100.954 77.2697 95.921 75.7894C91.4802 74.3091 87.0394 72.8289 77.5657 72.8289C68.6842 72.8289 64.2434 74.3091 59.5065 75.7894H59.2105C54.7697 77.2697 50.0329 78.7499 39.671 78.7499C30.1974 78.7499 25.1644 77.2697 20.1315 75.7894L19.5394 75.4934C15.6907 74.3092 11.546 73.1249 4.73677 72.8289H3.55258V147.73H4.73677C13.0262 148.026 17.171 149.21 21.3157 150.691C25.7565 152.171 30.4934 153.651 39.671 153.651C48.5526 153.651 52.9934 152.171 57.7303 150.691H58.0262C62.467 149.21 67.4999 147.73 77.5657 147.73ZM77.5657 69.2762C87.0394 69.2762 92.0723 70.7565 97.1052 72.2367C101.546 73.717 105.987 75.1973 115.461 75.1973C124.342 75.1973 128.783 73.717 133.52 72.2367H133.816L135.296 71.9408C139.145 70.7565 143.289 69.5724 150.395 69.5724H151.579V53.5855H150.395C143.585 53.8815 139.737 55.0658 135.592 56.25L135 56.546C129.967 58.0262 124.934 59.5065 115.461 59.5065C105.987 59.5065 100.954 58.0262 95.921 56.546C91.4802 55.0657 87.0394 53.5855 77.5657 53.5855C68.6842 53.5855 64.2434 55.0657 59.5065 56.546H59.2105C54.7697 58.0262 50.0329 59.5065 39.671 59.5065C30.1974 59.5065 25.1644 58.0262 20.1315 56.546L19.5394 56.25C15.3947 55.0658 11.546 53.8815 4.73677 53.5855H3.55258V69.5724H4.73677C13.0262 69.8684 17.171 71.0526 21.3157 72.5329C25.7565 74.0132 30.4934 75.4934 39.671 75.4934C48.5526 75.4934 52.9934 74.0132 57.7303 72.5329H58.0262C62.467 70.7566 67.4999 69.2762 77.5657 69.2762ZM78.1579 49.4406C87.6316 49.4406 92.6645 50.9209 97.6974 52.4012C102.138 53.8814 106.579 55.3617 116.053 55.3617C124.934 55.3617 129.375 53.8814 134.112 52.4012H134.408L135.888 52.1052C139.737 50.921 143.882 49.7368 150.987 49.7368H152.171V33.7499H150.987C144.178 34.0459 140.033 35.2302 136.184 36.4144L135.592 36.7104C130.559 38.1907 125.526 39.6709 116.053 39.6709C106.579 39.6709 101.546 38.1907 96.5131 36.7104C92.0723 35.2302 87.6316 33.7499 78.1579 33.7499C69.2763 33.7499 64.8355 35.2302 60.0987 36.7104H59.8026C55.3618 38.1907 50.6249 39.6709 40.2631 39.6709C30.7894 39.6709 25.7566 38.1907 20.7237 36.7104L20.1315 36.4144C16.2829 35.2302 12.1381 34.0459 5.32891 33.7499H4.14472V49.7368H5.32891C13.6184 50.0329 17.7631 51.2171 21.9079 52.6973C26.3487 54.1776 31.0855 55.6579 40.2631 55.6579C49.1447 55.6579 53.5855 54.1776 58.3223 52.6973H58.6184C63.0592 50.921 68.0921 49.4406 78.1579 49.4406ZM78.1579 30.1972C87.6316 30.1972 92.6645 31.6775 97.6974 33.1577C102.138 34.638 106.579 36.1183 116.053 36.1183C124.934 36.1183 129.375 34.638 134.112 33.1577H134.408L135.888 32.8618C139.737 31.6776 143.882 30.4934 150.987 30.4934H152.171V3.84865H4.14472V30.4934H5.32891C13.6184 30.7894 17.7631 31.9736 21.9079 33.4539C26.3487 34.9342 31.0855 36.4144 40.2631 36.4144C49.1447 36.4144 53.5855 34.9342 58.3223 33.4539H58.6184C63.0592 31.6776 68.0921 30.1972 78.1579 30.1972Z" fill="#55372E" fill-opacity="0.7"/>
</svg>
