<svg width="28" height="27" viewBox="0 0 28 27" fill="none" xmlns="http://www.w3.org/2000/svg">
<path d="M10.5 25.4217C11.1443 25.4217 11.6666 24.9011 11.6666 24.2588C11.6666 23.6165 11.1443 23.0958 10.5 23.0958C9.85565 23.0958 9.33331 23.6165 9.33331 24.2588C9.33331 24.9011 9.85565 25.4217 10.5 25.4217Z" stroke="#2D2824" stroke-width="1.5" stroke-linecap="round" stroke-linejoin="round"/>
<path d="M23.3333 25.4217C23.9777 25.4217 24.5 24.9011 24.5 24.2588C24.5 23.6165 23.9777 23.0958 23.3333 23.0958C22.689 23.0958 22.1667 23.6165 22.1667 24.2588C22.1667 24.9011 22.689 25.4217 23.3333 25.4217Z" stroke="#2D2824" stroke-width="1.5" stroke-linecap="round" stroke-linejoin="round"/>
<path d="M1.16666 1H5.83332L8.95999 16.5719C9.06667 17.1073 9.35888 17.5882 9.78546 17.9305C10.212 18.2728 10.7458 18.4547 11.2933 18.4442H22.6333C23.1808 18.4547 23.7146 18.2728 24.1412 17.9305C24.5678 17.5882 24.86 17.1073 24.9667 16.5719L26.8333 6.81473H6.99999" stroke="#2D2824" stroke-width="1.5" stroke-linecap="round" stroke-linejoin="round"/>
</svg>
