<svg width="35" height="36" viewBox="0 0 35 36" fill="none" xmlns="http://www.w3.org/2000/svg">
<path fill-rule="evenodd" clip-rule="evenodd" d="M29.9004 5.11125C28.286 3.48624 26.3652 2.19773 24.2493 1.32036C22.1333 0.443003 19.8643 -0.00576583 17.5737 5.59244e-05C7.96865 5.59244e-05 0.149473 7.81729 0.14559 17.4263C0.14559 20.4972 0.947308 23.4945 2.47115 26.1384L0 35.1669L9.23819 32.7424C11.7936 34.1334 14.6565 34.8628 17.566 34.8641H17.5737C27.1769 34.8641 34.996 27.0469 34.9999 17.4379C35.0065 15.1482 34.5592 12.8799 33.6839 10.7642C32.8086 8.64837 31.5227 6.72705 29.9004 5.11125ZM17.5737 31.9232H17.5679C14.9735 31.9234 12.4269 31.2254 10.1952 29.9024L9.6672 29.5879L4.18524 31.0263L5.64697 25.6822L5.30337 25.1348C3.85288 22.8256 3.08503 20.1532 3.08846 17.4263C3.09234 9.44014 9.58955 2.94292 17.5796 2.94292C19.4824 2.93869 21.3672 3.31191 23.1249 4.04097C24.8826 4.77003 26.4782 5.84045 27.8194 7.19028C29.1678 8.53368 30.2366 10.131 30.9639 11.8899C31.6913 13.6489 32.0628 15.5345 32.0571 17.4379C32.0532 25.424 25.556 31.9232 17.5737 31.9232ZM25.5191 21.0738C25.0823 20.8544 22.9431 19.8023 22.5432 19.6567C22.1453 19.5111 21.856 19.4393 21.5648 19.8741C21.2737 20.3089 20.4389 21.2892 20.1847 21.5804C19.9304 21.8716 19.6761 21.9066 19.2412 21.6891C18.8064 21.4717 17.4029 21.0117 15.7393 19.5286C14.4445 18.3736 13.571 16.9487 13.3167 16.5119C13.0624 16.0752 13.2895 15.8403 13.5088 15.6229C13.7049 15.4288 13.9437 15.1143 14.1611 14.86C14.3785 14.6057 14.4503 14.4251 14.5959 14.134C14.7415 13.8428 14.6697 13.5885 14.559 13.3711C14.4503 13.1517 13.5787 11.0086 13.2157 10.137C12.8644 9.2926 12.5052 9.40519 12.2374 9.39355C11.9599 9.3822 11.6823 9.37702 11.4046 9.37802C11.1838 9.38364 10.9665 9.43483 10.7664 9.52836C10.5663 9.62189 10.3877 9.75575 10.2418 9.92155C9.84191 10.3583 8.71795 11.4105 8.71795 13.5535C8.71795 15.6966 10.2787 17.7679 10.4961 18.0591C10.7135 18.3503 13.5671 22.7471 17.9348 24.6339C18.9753 25.0824 19.7867 25.3503 20.4176 25.5521C21.46 25.8841 22.4093 25.8356 23.1605 25.7249C23.9972 25.6007 25.7365 24.6728 26.0995 23.6556C26.4625 22.6384 26.4625 21.7668 26.3538 21.5843C26.2451 21.4018 25.952 21.2912 25.5191 21.0738Z" fill="white"/>
</svg>
