<svg width="635" height="504" viewBox="0 0 635 504" fill="none" xmlns="http://www.w3.org/2000/svg">
<path fill-rule="evenodd" clip-rule="evenodd" d="M340.01 19.8116C393.937 23.0054 448.777 3.57607 497.994 25.8478C553.813 51.1071 607.356 92.0198 627.469 149.893C647.724 208.174 621.77 269.97 603.295 328.841C584.618 388.355 574.9 461.287 520.289 491.428C466.111 521.33 400.845 485.491 340.01 474.153C291.794 465.168 243.149 460.024 202.728 432.246C161.499 403.913 139.865 358.898 111.92 317.405C70.9249 256.534 -11.609 205.495 1.36906 133.263C14.0191 62.8571 99.9904 29.017 167.818 6.29324C223.779 -12.4548 281.095 16.3223 340.01 19.8116Z" fill="#55372E" fill-opacity="0.05"/>
</svg>
