<svg width="558" height="616" viewBox="0 0 558 616" fill="none" xmlns="http://www.w3.org/2000/svg">
<path fill-rule="evenodd" clip-rule="evenodd" d="M223.945 0.086915C278.706 -1.79896 327.044 27.3516 375.051 53.7646C430.378 84.2056 492.445 109.297 522.942 164.594C556.586 225.599 566.23 299.783 547.782 366.965C528.857 435.882 478.304 490.289 421.57 533.75C363.606 578.153 296.742 620.694 223.945 615.038C153.03 609.529 103.452 548.522 47.4391 504.683C-6.17712 462.721 -81.6565 432.145 -95.0379 365.388C-108.333 299.062 -50.944 241.954 -16.9472 183.473C9.50932 137.963 38.3315 95.8045 80.2167 63.9183C122.974 31.3684 170.24 1.93643 223.945 0.086915Z" fill="#55372E" fill-opacity="0.05"/>
</svg>
